<svg xmlns="http://www.w3.org/2000/svg" viewBox="0 0 54.96 47.47"><defs><style>.cls-1{fill:none;stroke:#bb9872;stroke-linecap:round;stroke-linejoin:round;stroke-width:1.03px;}.cls-2{fill:#bb9872;}</style></defs><title>Asset 11</title><g id="Layer_2" data-name="Layer 2"><g id="Layer_1-2" data-name="Layer 1"><circle class="cls-1" cx="44.5" cy="37.01" r="9.94"/><circle class="cls-1" cx="13.68" cy="37.01" r="9.94"/><path class="cls-1" d="M14.18,37s8-14.41,24.35-13.92"/><polyline class="cls-1" points="29.09 13.15 34.56 13.15 44.5 37.01"/><line class="cls-1" x1="15.92" y1="20.11" x2="24.37" y2="20.11"/><line class="cls-1" x1="20.64" y1="20.11" x2="23.62" y2="27.07"/><line class="cls-1" x1="7.23" y1="26.32" x2="7.23" y2="16.88"/><rect class="cls-1" x="0.52" y="0.52" width="13.42" height="15.91"/><path class="cls-2" d="M4,4.13H7.8a2.37,2.37,0,0,1,2.66,2.56A2.37,2.37,0,0,1,7.8,9.26H5.15v3.55H4ZM5.15,8.29H7.41c1.3,0,1.9-.56,1.9-1.6S8.71,5.1,7.41,5.1H5.15Z"/></g></g></svg>