<svg xmlns="http://www.w3.org/2000/svg" viewBox="0 0 48.11 43.4"><defs><style>.cls-1{fill:none;stroke:#bb9872;stroke-linecap:round;stroke-linejoin:round;stroke-width:1.03px;}</style></defs><title>Asset 10</title><g id="Layer_2" data-name="Layer 2"><g id="Layer_1-2" data-name="Layer 1"><line class="cls-1" x1="5.22" y1="42.89" x2="5.22" y2="10.82"/><line class="cls-1" x1="42.89" y1="42.89" x2="42.89" y2="10.82"/><polyline class="cls-1" points="47.59 13.46 24.05 0.52 0.52 13.46"/><line class="cls-1" x1="11.99" y1="16.99" x2="36.12" y2="16.99"/><line class="cls-1" x1="11.99" y1="13.46" x2="36.12" y2="13.46"/><path class="cls-1" d="M36.13,30.26s-2.61-5.87-4.57-6.53h-15c-2,.66-4.57,6.53-4.57,6.53"/><path class="cls-1" d="M33.73,30.28s-2.09-4.44-3.66-4.94H18c-1.57.5-3.66,4.94-3.66,4.94"/><path class="cls-1" d="M36.08,38.09H12a1,1,0,0,1-1-1V31.29a1,1,0,0,1,1-1,70.43,70.43,0,0,0,12.13,1.31,66.41,66.41,0,0,0,11.92-1.31,1,1,0,0,1,1,1v5.77A1,1,0,0,1,36.08,38.09Z"/><circle class="cls-1" cx="14.92" cy="34.83" r="1.31"/><circle class="cls-1" cx="33.19" cy="34.83" r="1.31"/><rect class="cls-1" x="18.83" y="33.52" width="10.45" height="1.96" rx="0.88"/><path class="cls-1" d="M18.18,38.09v2.29a1,1,0,0,1-1,1H14.59a1,1,0,0,1-1-1V38.09"/><path class="cls-1" d="M34.5,38.09v2.29a1,1,0,0,1-1,1H30.91a1,1,0,0,1-1-1V38.09"/></g></g></svg>