<svg xmlns="http://www.w3.org/2000/svg" viewBox="0 0 32.81 45.76"><defs><style>.cls-1{fill:none;stroke:#bb9872;stroke-linecap:round;stroke-linejoin:round;stroke-width:1.03px;}</style></defs><title>Asset 8</title><g id="Layer_2" data-name="Layer 2"><g id="Layer_1-2" data-name="Layer 1"><rect class="cls-1" x="0.52" y="6.99" width="31.78" height="38.25"/><circle class="cls-1" cx="16.63" cy="29.13" r="10.59"/><path class="cls-1" d="M23.81,28.72a7.15,7.15,0,0,0-8.5-6.67"/><path class="cls-1" d="M9.45,28.46c0,.22,0,.44,0,.67a7.21,7.21,0,0,0,7.21,7.21,7.34,7.34,0,0,0,2.35-.4"/><line class="cls-1" x1="5.52" y1="13.17" x2="11.99" y2="13.17"/><line class="cls-1" x1="16.11" y1="13.17" x2="18.46" y2="13.17"/><line class="cls-1" x1="20.82" y1="13.17" x2="23.17" y2="13.17"/><line class="cls-1" x1="25.53" y1="13.17" x2="27.88" y2="13.17"/><rect class="cls-1" x="3.46" y="0.52" width="10" height="2.94"/><polyline class="cls-1" points="3.46 6.4 3.46 3.46 18.76 3.46 18.76 6.4"/></g></g></svg>