<svg xmlns="http://www.w3.org/2000/svg" viewBox="0 0 41.71 47.17"><defs><style>.cls-1{fill:none;stroke:#bb9872;stroke-linecap:round;stroke-linejoin:round;stroke-width:1.03px;}</style></defs><title>Asset 6</title><g id="Layer_2" data-name="Layer 2"><g id="Layer_1-2" data-name="Layer 1"><line class="cls-1" x1="17.59" y1="0.59" x2="17.59" y2="3.29"/><line class="cls-1" x1="21.28" y1="0.59" x2="21.28" y2="3.29"/><line class="cls-1" x1="14.36" y1="0.52" x2="24.51" y2="0.52"/><polygon class="cls-1" points="26.82 39.27 32.81 39.27 34.66 39.27 34.66 25.89 38.35 25.89 24.51 12.05 24.51 3.29 21.74 3.29 17.13 3.29 14.36 3.29 14.36 12.05 0.52 25.89 4.21 25.89 4.21 39.27 6.05 39.27 12.05 39.27 26.82 39.27"/><polyline class="cls-1" points="6.51 39.74 6.51 46.66 12.51 46.66 12.51 39.74"/><polyline class="cls-1" points="26.82 39.74 26.82 46.66 32.81 46.66 32.81 39.74"/><polyline class="cls-1" points="4.74 28.92 37.96 28.92 37.96 32.15 41.19 32.15"/><line class="cls-1" x1="3.82" y1="25.97" x2="35.05" y2="25.97"/><rect class="cls-1" x="6.9" y="31.89" width="25.06" height="4.76"/></g></g></svg>