<?xml version="1.0" encoding="utf-8"?>
<!-- Generator: Adobe Illustrator 22.1.0, SVG Export Plug-In . SVG Version: 6.00 Build 0)  -->
<svg version="1.1" id="Layer_1" xmlns="http://www.w3.org/2000/svg" xmlns:xlink="http://www.w3.org/1999/xlink" x="0px" y="0px"
	 viewBox="0 0 53.3 47.2" style="enable-background:new 0 0 53.3 47.2;" xml:space="preserve">
<style type="text/css">
	.st0{fill:#BB9872;}
</style>
<title>Asset 6</title>
<g>
	<g>
		<g>
			<path class="st0" d="M14.7,44.8c-1.2,0-2.3-0.4-3.5-1.3l-0.1-0.1c-1.3-0.8-2.6-1.6-4.2-1.7c-1.7-0.2-3.4,0.4-5.3,1.8L1.3,43
				c2-1.5,3.8-2.1,5.7-1.9c1.7,0.2,3.1,1,4.4,1.8l0.1,0.1c1.1,0.8,2.2,1.3,3.3,1.2c0.9,0,1.9-0.3,3-1l0.4-0.3l0.3-0.2
				c1.8-1.3,3.6-1.9,5.3-1.7c1.7,0.2,3,1,4.4,1.9l0.1,0.1c1,0.8,2.1,1.2,3.2,1.1c0.9,0,1.9-0.4,3.1-1l0.5-0.2l0.3-0.2
				c2-1.2,3.6-1.7,5.3-1.6c1.7,0.2,3.2,1.1,4.3,1.8c0,0,0.1,0.1,0.1,0.1c1.1,0.8,2.1,1.2,3.3,1.2c1.1,0,2.2-0.5,3.4-1.3l0.3,0.5
				c-1.3,0.9-2.5,1.3-3.7,1.4c-1.2,0-2.4-0.4-3.6-1.3c0,0,0,0-0.1-0.1c-1.1-0.7-2.5-1.6-4.1-1.7c-1.5-0.2-3.1,0.3-5,1.5l-0.3,0.2
				l-0.5,0.3c-1.2,0.6-2.3,1-3.3,1c-1.3,0.1-2.4-0.3-3.6-1.2L28,43.4c-1.3-0.8-2.7-1.6-4.2-1.8c-1.6-0.2-3.2,0.3-4.9,1.6l-0.3,0.2
				l-0.5,0.3c-1.2,0.7-2.2,1-3.2,1.1C14.8,44.8,14.7,44.8,14.7,44.8z"/>
			<path class="st0" d="M14.7,45.1c-1.3,0-2.4-0.5-3.6-1.4l-0.1,0c-1.3-0.8-2.6-1.5-4.1-1.7c-1.6-0.2-3.3,0.4-5.1,1.7
				c-0.1,0-0.1,0.1-0.2,0c-0.1,0-0.1,0-0.2-0.1l-0.3-0.4c-0.1-0.1-0.1-0.3,0.1-0.3c2-1.5,3.9-2.1,5.8-1.9c1.7,0.2,3.2,1,4.5,1.9
				l0.1,0.1c1.1,0.8,2.1,1.2,3.1,1.2c0.9,0,1.8-0.3,2.8-0.9l0.7-0.5c1.9-1.4,3.7-1.9,5.5-1.7c1.7,0.2,3.1,1,4.5,1.9l0.1,0.1
				c1,0.8,2,1.1,3.1,1.1c0.9,0,1.8-0.4,3-0.9l0.5-0.2l0.3-0.2c2-1.3,3.8-1.8,5.5-1.6c1.8,0.2,3.3,1.1,4.4,1.8c0.1,0,0.1,0.1,0.1,0.1
				c1,0.8,2.1,1.2,3.1,1.2c1,0,2.1-0.4,3.3-1.2c0.1-0.1,0.3,0,0.3,0.1l0.3,0.5c0,0.1,0,0.1,0,0.2c0,0.1-0.1,0.1-0.1,0.2
				c-1.4,0.9-2.6,1.4-3.9,1.4c-1.3,0-2.5-0.4-3.8-1.4l-0.1,0c-1.1-0.7-2.4-1.5-4-1.7c-1.5-0.1-3,0.3-4.8,1.5l-0.3,0.2l-0.5,0.3
				c-1.3,0.7-2.4,1-3.4,1c-1.3,0.1-2.6-0.3-3.8-1.3l-0.1,0c-1.3-0.8-2.6-1.6-4.1-1.7c-1.5-0.2-3.1,0.3-4.7,1.5l-0.3,0.2L18.2,44
				c-1.2,0.7-2.3,1.1-3.4,1.1L14.7,45.1z M6.4,41.4c0.2,0,0.4,0,0.6,0c1.6,0.2,2.9,0.9,4.3,1.8l0.1,0.1c1.1,0.9,2.2,1.3,3.3,1.3
				l0.1,0c1,0,2-0.4,3.1-1l0.8-0.5c1.8-1.3,3.4-1.8,5.1-1.6c1.6,0.2,2.9,1,4.3,1.8l0.1,0.1c1.1,0.9,2.2,1.3,3.4,1.2
				c1-0.1,2-0.4,3.2-1l0.5-0.3l0.3-0.2c1.9-1.2,3.5-1.7,5.1-1.5c1.7,0.2,3.1,1.1,4.2,1.8c0,0,0.1,0,0.1,0.1c1.1,0.9,2.3,1.3,3.5,1.3
				c1.1,0,2.2-0.4,3.4-1.2l0,0c-1.2,0.8-2.3,1.1-3.4,1.2c-1.2,0-2.3-0.4-3.4-1.3c0,0-0.1,0-0.1-0.1c-1.1-0.7-2.5-1.6-4.2-1.8
				c-1.6-0.2-3.2,0.3-5.2,1.5l-0.3,0.2l-0.5,0.3c-1.2,0.6-2.2,0.9-3.2,1c-1.2,0.1-2.3-0.3-3.4-1.2l-0.1-0.1
				c-1.4-0.9-2.7-1.7-4.3-1.8c-1.7-0.2-3.4,0.3-5.1,1.6l-0.3,0.2l-0.5,0.3c-1.1,0.7-2.1,1-3.1,1c-1.2,0-2.3-0.4-3.4-1.3l-0.1-0.1
				C10,42.4,8.6,41.6,7,41.4c-1.7-0.2-3.4,0.4-5.3,1.7l0,0C3.3,42,4.9,41.4,6.4,41.4z"/>
		</g>
	</g>
	<g>
		<g>
			<path class="st0" d="M14.7,38.8c-1.2,0-2.3-0.4-3.5-1.3l-0.1-0.1c-1.3-0.8-2.6-1.6-4.2-1.7c-1.7-0.2-3.4,0.4-5.3,1.8L1.3,37
				c2-1.5,3.8-2.1,5.7-1.9c1.7,0.2,3.1,1,4.4,1.8l0.1,0.1c1.1,0.8,2.2,1.2,3.3,1.2c0.9,0,1.9-0.3,3-1l0.4-0.3l0.3-0.2
				c1.8-1.3,3.6-1.9,5.3-1.7c1.7,0.2,3,1,4.4,1.9l0.1,0.1c1,0.8,2.1,1.2,3.2,1.1c0.9,0,1.9-0.4,3.1-1l0.5-0.2l0.3-0.2
				c2-1.2,3.6-1.7,5.3-1.6c1.7,0.2,3.2,1.1,4.3,1.8c0,0,0.1,0.1,0.1,0.1c1.1,0.8,2.1,1.2,3.3,1.2c1.1,0,2.2-0.5,3.4-1.3l0.3,0.5
				c-1.3,0.9-2.5,1.3-3.7,1.4c-1.2,0-2.4-0.4-3.6-1.3c0,0,0,0-0.1-0.1c-1.1-0.7-2.5-1.6-4.1-1.7c-1.5-0.2-3.1,0.3-5,1.5l-0.3,0.2
				l-0.5,0.3c-1.2,0.6-2.3,1-3.3,1c-1.3,0.1-2.4-0.3-3.6-1.2L28,37.4c-1.3-0.8-2.7-1.6-4.2-1.8c-1.6-0.2-3.2,0.3-4.9,1.6l-0.3,0.2
				l-0.5,0.3c-1.2,0.7-2.2,1-3.2,1.1C14.8,38.8,14.7,38.8,14.7,38.8z"/>
			<path class="st0" d="M14.7,39c-1.3,0-2.4-0.5-3.6-1.4L11,37.6c-1.3-0.8-2.6-1.5-4.1-1.7c-1.6-0.2-3.3,0.4-5.1,1.7
				c-0.1,0.1-0.3,0.1-0.3-0.1l-0.3-0.4c0-0.1-0.1-0.1,0-0.2c0-0.1,0-0.1,0.1-0.2c2-1.5,3.9-2.1,5.8-1.9c1.7,0.2,3.2,1,4.5,1.9
				l0.1,0.1c1.1,0.8,2.1,1.2,3.1,1.2c0.9,0,1.8-0.3,2.8-0.9l0.7-0.5c1.9-1.4,3.7-1.9,5.5-1.7c1.7,0.2,3.1,1,4.5,1.9l0.1,0.1
				c1,0.8,2,1.1,3.1,1.1c0.9,0,1.9-0.4,3-0.9l0.5-0.2l0.3-0.2c2-1.3,3.7-1.8,5.5-1.6c1.8,0.2,3.3,1.1,4.4,1.9c0.1,0,0.1,0.1,0.1,0.1
				c1,0.8,2,1.2,3.1,1.2c1,0,2.1-0.4,3.3-1.2c0.1,0,0.1,0,0.2,0c0.1,0,0.1,0.1,0.2,0.1l0.3,0.5c0.1,0.1,0,0.3-0.1,0.3
				C51,38.5,49.7,39,48.5,39c0,0-0.1,0-0.1,0c-1.3,0-2.5-0.5-3.7-1.4l-0.1,0c-1.1-0.7-2.4-1.5-4-1.7c-1.5-0.1-3,0.3-4.8,1.5
				l-0.3,0.2l-0.5,0.3c-1.3,0.7-2.4,1-3.4,1c-1.3,0.1-2.6-0.3-3.8-1.3l-0.1,0c-1.3-0.8-2.6-1.6-4.1-1.7c-1.5-0.2-3.1,0.3-4.7,1.5
				l-0.3,0.2l-0.5,0.3C17,38.6,15.9,39,14.8,39L14.7,39z M6.4,35.4c0.2,0,0.4,0,0.6,0c1.6,0.2,2.9,0.9,4.3,1.8l0.1,0.1
				c1.1,0.9,2.2,1.3,3.3,1.3l0.1,0c1,0,2-0.4,3.1-1l0.8-0.5c1.8-1.3,3.4-1.8,5.1-1.6c1.6,0.2,2.9,1,4.3,1.8l0.1,0.1
				c1.1,0.9,2.2,1.2,3.4,1.2c1-0.1,2-0.4,3.2-1l0.5-0.3l0.3-0.2c1.9-1.2,3.5-1.7,5.1-1.5c1.7,0.2,3.1,1.1,4.2,1.8c0,0,0.1,0,0.1,0.1
				c1.1,0.9,2.3,1.3,3.5,1.3c1.1,0,2.2-0.4,3.4-1.2l0,0c-1.2,0.8-2.3,1.1-3.4,1.2c-1.2,0-2.3-0.4-3.4-1.3c0,0-0.1,0-0.1-0.1
				c-1.1-0.7-2.5-1.6-4.2-1.8c-1.6-0.2-3.2,0.3-5.2,1.5l-0.3,0.2l-0.5,0.3c-1.2,0.6-2.2,0.9-3.2,1c-1.2,0.1-2.3-0.3-3.4-1.2
				l-0.1-0.1c-1.4-0.9-2.7-1.7-4.3-1.8c-1.7-0.2-3.4,0.3-5.1,1.6l-0.3,0.2l-0.5,0.3c-1.1,0.7-2.1,1-3.1,1c-1.2,0-2.3-0.4-3.4-1.3
				l-0.1-0.1C10,36.3,8.6,35.5,7,35.3c-1.7-0.2-3.4,0.4-5.3,1.7l0,0C3.3,35.9,4.9,35.4,6.4,35.4z"/>
		</g>
	</g>
	<g>
		<g>
			<path class="st0" d="M14.7,32.7c-1.2,0-2.3-0.4-3.5-1.3l-0.1-0.1c-1.3-0.8-2.6-1.6-4.2-1.7c-1.7-0.2-3.4,0.4-5.3,1.8L1.3,31
				c2-1.5,3.8-2.1,5.7-1.9c1.7,0.2,3.1,1,4.4,1.8l0.1,0.1c1.1,0.8,2.2,1.3,3.3,1.2c0.9,0,1.9-0.3,3-1l0.4-0.3l0.3-0.2
				c1.8-1.3,3.6-1.9,5.3-1.7c1.7,0.2,3,1,4.4,1.9l0.1,0.1c1,0.8,2.1,1.2,3.2,1.1c0.9,0,1.9-0.4,3.1-1l0.5-0.2l0.3-0.2
				c2-1.2,3.6-1.8,5.3-1.6c1.7,0.2,3.2,1.1,4.3,1.8c0,0,0.1,0.1,0.1,0.1c1.1,0.8,2.1,1.2,3.3,1.2c1.1,0,2.2-0.5,3.4-1.3l0.3,0.5
				c-1.3,0.9-2.5,1.3-3.7,1.4c-1.2,0-2.4-0.4-3.6-1.3c0,0,0,0-0.1-0.1c-1.1-0.7-2.5-1.6-4.1-1.7c-1.5-0.2-3.1,0.3-5,1.5l-0.3,0.2
				l-0.5,0.3c-1.2,0.6-2.3,1-3.3,1c-1.3,0.1-2.4-0.3-3.6-1.2L28,31.3c-1.3-0.8-2.7-1.6-4.2-1.8c-1.6-0.2-3.2,0.3-4.9,1.6l-0.3,0.2
				l-0.5,0.3c-1.2,0.7-2.2,1-3.2,1.1C14.8,32.7,14.7,32.7,14.7,32.7z"/>
			<path class="st0" d="M14.7,33c-1.3,0-2.4-0.5-3.6-1.4L11,31.5c-1.3-0.8-2.6-1.5-4.1-1.7c-1.6-0.2-3.3,0.4-5.1,1.7
				c-0.1,0.1-0.3,0.1-0.3-0.1l-0.3-0.4c0-0.1-0.1-0.1,0-0.2c0-0.1,0-0.1,0.1-0.2c2-1.5,3.9-2.1,5.8-1.9c1.7,0.2,3.2,1,4.5,1.9
				l0.1,0.1c1.1,0.8,2.1,1.2,3.1,1.2c0.9,0,1.8-0.3,2.8-0.9l0.7-0.5c1.9-1.4,3.7-1.9,5.5-1.7c1.7,0.2,3.1,1,4.5,1.9l0.1,0.1
				c1,0.8,2,1.1,3.1,1.1c0.9,0,1.8-0.4,3-0.9l0.5-0.2l0.3-0.2c2-1.3,3.8-1.8,5.5-1.6c1.8,0.2,3.3,1.1,4.4,1.9c0.1,0,0.1,0.1,0.1,0.1
				c1,0.8,2,1.2,3.1,1.1c1,0,2.1-0.4,3.3-1.2c0.1,0,0.1,0,0.2,0c0.1,0,0.1,0.1,0.2,0.1l0.3,0.5c0.1,0.1,0,0.3-0.1,0.3
				c-1.4,0.9-2.6,1.4-3.8,1.4c-1.3,0-2.5-0.4-3.8-1.4l-0.1,0c-1.1-0.7-2.4-1.5-4-1.7c-1.5-0.2-3,0.3-4.8,1.5l-0.3,0.2l-0.5,0.3
				c-1.3,0.7-2.4,1-3.4,1c-1.3,0.1-2.6-0.3-3.8-1.3l-0.1,0c-1.3-0.8-2.6-1.6-4.1-1.7c-1.5-0.2-3.1,0.3-4.7,1.5l-0.3,0.2l-0.5,0.3
				C17,32.6,15.9,33,14.8,33L14.7,33z M6.4,29.3c0.2,0,0.4,0,0.6,0c1.6,0.2,2.9,0.9,4.3,1.8l0.1,0.1c1.1,0.9,2.2,1.3,3.3,1.3l0.1,0
				c1,0,2-0.4,3.1-1l0.8-0.5c1.8-1.3,3.4-1.8,5.1-1.6c1.6,0.2,2.9,1,4.3,1.8l0.1,0.1c1.1,0.9,2.2,1.2,3.4,1.2c1-0.1,2-0.4,3.2-1
				l0.5-0.3l0.3-0.2c1.9-1.2,3.5-1.7,5.1-1.5c1.7,0.2,3.1,1.1,4.2,1.8l0.1,0.1c1.1,0.9,2.3,1.3,3.5,1.3c1.1,0,2.2-0.4,3.4-1.2l0,0
				c-1.2,0.8-2.3,1.1-3.4,1.2c0,0-0.1,0-0.1,0c-1.1,0-2.2-0.4-3.3-1.3c0,0-0.1,0-0.1-0.1c-1.1-0.7-2.5-1.6-4.2-1.8
				c-1.6-0.2-3.2,0.3-5.2,1.5l-0.3,0.2l-0.5,0.3c-1.2,0.6-2.2,0.9-3.2,1c-1.2,0.1-2.3-0.3-3.4-1.2l-0.1-0.1
				c-1.4-0.9-2.7-1.7-4.3-1.8c-1.7-0.2-3.4,0.3-5.1,1.6l-0.3,0.2l-0.5,0.3c-1.1,0.7-2.1,1-3.1,1c-1.2,0-2.3-0.4-3.4-1.3l-0.1-0.1
				C10,30.3,8.6,29.5,7,29.3c-1.7-0.2-3.4,0.4-5.3,1.7l0,0C3.3,29.9,4.9,29.3,6.4,29.3z"/>
		</g>
	</g>
	<g>
		<g>
			<path class="st0" d="M16.2,32.2h-0.5V9.5c0-5.3,3.4-8,6.5-8.1c1.7-0.1,3.3,0.5,4.5,1.6c1.4,1.3,2.2,3.3,2.2,5.6
				c0,0.8-0.7,1.5-1.5,1.5c-0.8,0-1.5-0.7-1.5-1.5c0-1.5-0.4-2.6-1.2-3.4c-0.6-0.6-1.4-0.9-2.3-0.8c-1.8,0.1-3.7,1.7-3.7,5.2v3.6
				h15.5V9.5c0-5.3,3.4-8,6.5-8.1C42.4,1.3,44,1.9,45.2,3c1.4,1.3,2.2,3.3,2.2,5.6c0,0.8-0.7,1.5-1.5,1.5c-0.8,0-1.5-0.7-1.5-1.5
				c0-1.5-0.4-2.6-1.2-3.4c-0.6-0.6-1.4-0.9-2.3-0.8c-1.8,0.1-3.7,1.7-3.7,5.2v20.7h-0.5V9.5c0-3.8,2.1-5.6,4.2-5.7
				c1-0.1,2,0.3,2.7,1c0.6,0.6,1.4,1.7,1.4,3.8c0,0.5,0.4,0.9,0.9,0.9c0.5,0,0.9-0.4,0.9-0.9c0-2.1-0.7-3.9-2-5.2
				c-1.1-1-2.6-1.6-4.1-1.5c-2.9,0.2-6,2.6-6,7.6v4.2H18.1V9.5c0-3.8,2.1-5.6,4.2-5.7c1-0.1,2,0.3,2.7,1c0.6,0.6,1.4,1.7,1.4,3.8
				c0,0.5,0.4,0.9,0.9,0.9c0.5,0,0.9-0.4,0.9-0.9c0-2.1-0.7-3.9-2-5.2c-1.1-1-2.6-1.6-4.1-1.5c-2.9,0.2-6,2.6-6,7.6V32.2z"/>
			<path class="st0" d="M16.2,32.4h-0.5c-0.1,0-0.3-0.1-0.3-0.3V9.5c0-5.5,3.5-8.2,6.7-8.4c1.8-0.1,3.4,0.5,4.7,1.7
				c1.4,1.4,2.2,3.4,2.2,5.7c0,1-0.8,1.7-1.7,1.7c-1,0-1.7-0.8-1.7-1.7c0-1.4-0.4-2.5-1.1-3.2c-0.6-0.5-1.3-0.8-2.1-0.8
				c-1.7,0.1-3.4,1.6-3.4,4.9v3.4h15V9.5c0-5.5,3.5-8.2,6.7-8.4c1.8-0.1,3.4,0.5,4.7,1.7c1.4,1.4,2.2,3.4,2.2,5.7
				c0,1-0.8,1.7-1.7,1.7c-1,0-1.7-0.8-1.7-1.7c0-1.4-0.4-2.5-1.1-3.2c-0.6-0.5-1.3-0.8-2.1-0.8c-1.7,0.1-3.4,1.6-3.4,4.9v20.7
				c0,0.1-0.1,0.3-0.3,0.3h-0.5c-0.1,0-0.3-0.1-0.3-0.3V9.5c0-3.9,2.2-5.8,4.4-6c1.1-0.1,2.1,0.3,2.9,1.1c0.7,0.6,1.5,1.8,1.5,4
				c0,0.4,0.3,0.7,0.7,0.7c0.4,0,0.7-0.3,0.7-0.7c0-2.1-0.7-3.8-1.9-5c-1.1-1-2.5-1.5-3.9-1.4C38,2.4,35,4.7,35,9.5v4.2
				c0,0.1-0.1,0.3-0.3,0.3H18.1c-0.1,0-0.3-0.1-0.3-0.3V9.5c0-3.9,2.2-5.8,4.4-6c1.1-0.1,2.1,0.3,2.9,1.1c0.7,0.6,1.5,1.8,1.5,4
				c0,0.4,0.3,0.7,0.7,0.7C27.7,9.3,28,9,28,8.6c0-2.1-0.7-3.8-1.9-5c-1.1-1-2.4-1.5-3.9-1.4c-2.8,0.2-5.7,2.5-5.7,7.3v22.6
				C16.5,32.3,16.3,32.4,16.2,32.4z M15.9,31.9L15.9,31.9l0-22.4c0-5.1,3.2-7.7,6.2-7.8c1.6-0.1,3.1,0.5,4.3,1.6
				c1.3,1.3,2.1,3.1,2.1,5.3c0,0.7-0.5,1.2-1.2,1.2c-0.7,0-1.2-0.5-1.2-1.2c0-2-0.7-3-1.3-3.6c-0.7-0.6-1.6-1-2.5-0.9
				c-2,0.1-4,1.8-4,5.5v3.9h16.1V9.5c0-5.1,3.2-7.7,6.2-7.8c1.6-0.1,3.1,0.5,4.3,1.6C46.3,4.5,47,6.4,47,8.6c0,0.7-0.5,1.2-1.2,1.2
				c-0.7,0-1.2-0.5-1.2-1.2c0-2-0.7-3-1.3-3.6c-0.7-0.6-1.6-1-2.5-0.9c-2,0.1-4,1.8-4,5.5V30h0V9.5c0-3.6,2-5.3,3.9-5.4
				c0.9-0.1,1.8,0.3,2.5,0.9c0.8,0.8,1.3,2,1.3,3.6c0,0.7,0.6,1.2,1.2,1.2c0.7,0,1.2-0.6,1.2-1.2c0-2.2-0.7-4.1-2.1-5.4
				c-1.2-1.1-2.7-1.7-4.3-1.6c-3,0.2-6.3,2.7-6.3,7.9v3.6c0,0.1-0.1,0.3-0.3,0.3H18.6c-0.1,0-0.3-0.1-0.3-0.3V9.5
				c0-3.6,2-5.3,3.9-5.4c0.9-0.1,1.8,0.3,2.5,0.9c0.8,0.8,1.3,2,1.3,3.6c0,0.7,0.6,1.2,1.2,1.2c0.7,0,1.2-0.6,1.2-1.2
				c0-2.2-0.7-4.1-2.1-5.4c-1.2-1.1-2.7-1.7-4.3-1.6c-3,0.2-6.3,2.7-6.3,7.9V31.9z"/>
		</g>
	</g>
	<g>
		<g>
			<g>
				<rect x="16" y="18.8" class="st0" width="21" height="0.5"/>
				<path class="st0" d="M37,19.6H16c-0.1,0-0.3-0.1-0.3-0.3v-0.5c0-0.1,0.1-0.3,0.3-0.3h21c0.1,0,0.3,0.1,0.3,0.3v0.5
					C37.2,19.5,37.1,19.6,37,19.6z M16.2,19.1h20.5v0L16.2,19.1L16.2,19.1z"/>
			</g>
		</g>
		<g>
			<g>
				<rect x="16" y="24.6" class="st0" width="21" height="0.5"/>
				<path class="st0" d="M37,25.4H16c-0.1,0-0.3-0.1-0.3-0.3v-0.5c0-0.1,0.1-0.3,0.3-0.3h21c0.1,0,0.3,0.1,0.3,0.3v0.5
					C37.2,25.3,37.1,25.4,37,25.4z M16.2,24.9h20.5v0L16.2,24.9L16.2,24.9z"/>
			</g>
		</g>
	</g>
</g>
</svg>
