<svg xmlns="http://www.w3.org/2000/svg" viewBox="0 0 46.34 37.61"><defs><style>.cls-1{fill:none;stroke:#bb9872;stroke-linecap:round;stroke-linejoin:round;stroke-width:1.03px;}.cls-2{fill:#bb9872;}</style></defs><title>Asset 12</title><g id="Layer_2" data-name="Layer 2"><g id="Layer_1-2" data-name="Layer 1"><polyline class="cls-1" points="42 37.1 42 5.03 4.34 5.03 4.34 37.1"/><polyline class="cls-1" points="45.83 37.1 45.83 0.52 0.52 0.52 0.52 37.1"/><path class="cls-2" d="M15.78,19.06a1.9,1.9,0,0,0-2.15-1.78c-1,0-2,.35-2,1.49s1.39,1.22,2.79,1.54,2.77.8,2.77,2.51-1.81,2.59-3.39,2.59c-1.95,0-3.59-.95-3.59-3.07h1.09c0,1.46,1.22,2.09,2.53,2.09,1,0,2.2-.33,2.2-1.58s-1.38-1.4-2.77-1.7-2.78-.71-2.78-2.3c0-1.76,1.57-2.54,3.15-2.54,1.77,0,3.12.84,3.2,2.75Z"/><path class="cls-2" d="M25.57,22.06c0,2.19-1.25,3.35-3.42,3.35s-3.56-1-3.56-3.35V16.51h1.15v5.55a2.17,2.17,0,0,0,2.41,2.37,2.09,2.09,0,0,0,2.26-2.37V16.51h1.16Z"/><path class="cls-2" d="M27.44,16.51H29l2.74,7.3,2.74-7.3h1.59V25.2H35V18h0L32.25,25.2h-1L28.56,18h0V25.2H27.44Z"/></g></g></svg>