<svg xmlns="http://www.w3.org/2000/svg" viewBox="0 0 61.72 67.33"><defs><style>.cls-1,.cls-2{fill:none;stroke:#ff4a4a;stroke-linecap:round;stroke-width:1.87px;}.cls-1{stroke-linejoin:round;}.cls-2{stroke-miterlimit:10;}</style></defs><title>Asset 13</title><g id="Layer_2" data-name="Layer 2"><g id="Layer_1-2" data-name="Layer 1"><path class="cls-1" d="M44,10.29H56.48a4.29,4.29,0,0,1,4.3,4.3V52.73c0,2.38-1.93,6.18-4.31,6.18H11.4L.94,66.39V14.59a4.29,4.29,0,0,1,4.3-4.3H23.38"/><rect class="cls-2" x="12.16" y="19.64" width="7.48" height="29.92"/><path class="cls-1" d="M40.21,19.64h12a3,3,0,0,1,2.92,3V24.1a3,3,0,0,1-2.92,3h-.82"/><path class="cls-1" d="M19.64,21.51c3-1.69,8.41-5.38,10.41-9.58.71-1.5.95-5.32.88-8.07A2.7,2.7,0,0,1,33.48.94h.23c3.59,0,6.5,3.23,6.5,7.21V19.64"/><path class="cls-1" d="M51.43,27.12h.78a3,3,0,0,1,3,3v1.56a3,3,0,0,1-3,3H49.56"/><path class="cls-1" d="M49.56,34.6h.78a3,3,0,0,1,3,3v1.53a3,3,0,0,1-3,3h-.75"/><path class="cls-1" d="M48.47,42h0a3,3,0,0,1,3,3.07v1.46a3,3,0,0,1-3,3.07H26a14.79,14.79,0,0,1-6.13-1.32"/></g></g></svg>