<svg xmlns="http://www.w3.org/2000/svg" viewBox="0 0 73.87 65.46"><defs><style>.cls-1{fill:none;stroke:#ff4a4a;stroke-linecap:round;stroke-linejoin:round;stroke-width:1.87px;}</style></defs><title>Asset 14</title><g id="Layer_2" data-name="Layer 2"><g id="Layer_1-2" data-name="Layer 1"><line class="cls-1" x1="23.38" y1="8.42" x2="43.95" y2="8.42"/><polyline class="cls-1" points="64.52 47.22 64.52 64.52 0.94 64.52 0.94 8.42 4.68 8.42"/><polyline class="cls-1" points="60.78 8.42 64.52 8.42 64.52 32.73 64.52 34.13"/><rect class="cls-1" x="10.29" y="0.94" width="5.61" height="13.09"/><rect class="cls-1" x="49.56" y="0.94" width="5.61" height="13.09"/><line class="cls-1" x1="64.52" y1="23.38" x2="0.94" y2="23.38"/><rect class="cls-1" x="10.29" y="32.73" width="9.35" height="7.48"/><rect class="cls-1" x="28.99" y="32.73" width="9.35" height="7.48"/><rect class="cls-1" x="45.82" y="32.73" width="9.35" height="7.48"/><rect class="cls-1" x="10.29" y="47.69" width="9.35" height="7.48"/><rect class="cls-1" x="28.99" y="47.69" width="9.35" height="7.48"/><rect class="cls-1" x="45.82" y="47.69" width="9.35" height="7.48"/><polyline class="cls-1" points="43.95 45.82 50.68 53.16 72.94 32.53"/></g></g></svg>