<svg xmlns="http://www.w3.org/2000/svg" viewBox="0 0 80 66.11"><defs><style>.cls-1{fill:none;stroke:#ff4a4a;stroke-linecap:round;stroke-linejoin:round;stroke-width:1.87px;}</style></defs><title>Asset 16</title><g id="Layer_2" data-name="Layer 2"><g id="Layer_1-2" data-name="Layer 1"><polyline class="cls-1" points="66.17 12.94 66.17 31.48 37.81 31.48 37.81 12.94"/><rect class="cls-1" x="47.63" y="17.3" width="8.73" height="14.18"/><polyline class="cls-1" points="68.36 14.03 51.99 0.94 35.63 14.03"/><rect class="cls-1" x="0.94" y="27.23" width="10.64" height="37.95"/><path class="cls-1" d="M64.8,55.45C56.91,60,51.21,61.82,42,61.82s-16.29-5.53-20.65-6.54a51.2,51.2,0,0,0-9.74-1V32.78H25.3a6.35,6.35,0,0,1,4.2,1.58l8.93,7.83h12a3.1,3.1,0,0,1,3.1,3.1v3c1-.15,2-.32,2.87-.54a17.74,17.74,0,0,0,4.52-1.55c1.09-.58,2.13-1.16,3.11-1.72,7.08-4.1,11.57-7.63,14.36-3.65C81.6,45.37,72.7,50.9,64.8,55.45Z"/><path class="cls-1" d="M29.89,47.89s13.5,1.83,23.65.41"/></g></g></svg>