<svg xmlns="http://www.w3.org/2000/svg" viewBox="0 0 87.18 61.64"><defs><style>.cls-1{fill:none;stroke:#ff4a4a;stroke-linecap:round;stroke-linejoin:round;stroke-width:1.87px;}</style></defs><title>Asset 15</title><g id="Layer_2" data-name="Layer 2"><g id="Layer_1-2" data-name="Layer 1"><path class="cls-1" d="M16.07,24.83A7.57,7.57,0,1,1,8.5,17.27,7.57,7.57,0,0,1,16.07,24.83Z"/><line class="cls-1" x1="13.16" y1="60.42" x2="56.33" y2="60.42"/><polyline class="cls-1" points="21.43 52.54 23.7 44.26 48.1 44.26 43.7 60.42 31.55 60.42"/><path class="cls-1" d="M27.26,38A29.93,29.93,0,1,1,66.34,59.06"/><circle class="cls-1" cx="56.33" cy="30.86" r="2.93"/><line class="cls-1" x1="56.33" y1="27.92" x2="56.33" y2="13.25"/><line class="cls-1" x1="58.4" y1="32.93" x2="65.18" y2="39.71"/><line class="cls-1" x1="56.33" y1="5.66" x2="56.33" y2="8.55"/><line class="cls-1" x1="37.85" y1="13.31" x2="39.9" y2="15.36"/><line class="cls-1" x1="72.75" y1="48.21" x2="74.8" y2="50.26"/><line class="cls-1" x1="30.2" y1="31.78" x2="33.09" y2="31.78"/><line class="cls-1" x1="79.56" y1="31.78" x2="82.45" y2="31.78"/><line class="cls-1" x1="72.75" y1="15.36" x2="74.8" y2="13.31"/><polyline class="cls-1" points="2.39 60.7 2.39 35.85 8.39 39.52 18.96 56.56 29.72 56.56 22.05 56.56"/></g></g></svg>