<svg xmlns="http://www.w3.org/2000/svg" viewBox="0 0 52.94 52.94"><defs><style>.cls-1,.cls-2,.cls-3,.cls-4,.cls-5{fill:none;stroke:#555859;}.cls-1{stroke-miterlimit:10;stroke-width:1.94px;}.cls-2,.cls-3,.cls-4,.cls-5{stroke-linecap:square;stroke-linejoin:bevel;}.cls-2{stroke-width:1.21px;}.cls-3{stroke-width:1.22px;}.cls-4{stroke-width:1.19px;}</style></defs><title>Asset 15</title><g id="Layer_2" data-name="Layer 2"><g id="Layer_1-2" data-name="Layer 1"><circle class="cls-1" cx="26.47" cy="26.47" r="25.5"/><line class="cls-2" x1="31.82" y1="18.62" x2="31.82" y2="13.91"/><line class="cls-3" x1="31.82" y1="38.91" x2="31.82" y2="34.16"/><line class="cls-4" x1="36.82" y1="23.62" x2="36.82" y2="19.08"/><line class="cls-4" x1="26.82" y1="23.62" x2="26.82" y2="19.08"/><line class="cls-4" x1="26.82" y1="33.7" x2="26.82" y2="29.16"/><line class="cls-4" x1="36.82" y1="33.7" x2="36.82" y2="29.16"/><line class="cls-5" x1="21.82" y1="33.91" x2="21.82" y2="38.91"/><line class="cls-5" x1="21.82" y1="13.91" x2="21.82" y2="18.91"/><line class="cls-5" x1="31.82" y1="28.91" x2="31.82" y2="23.91"/><line class="cls-5" x1="21.82" y1="23.91" x2="21.82" y2="28.91"/><line class="cls-5" x1="16.82" y1="28.91" x2="16.82" y2="33.91"/><line class="cls-5" x1="41.82" y1="18.91" x2="11.82" y2="18.91"/><line class="cls-5" x1="41.82" y1="23.91" x2="11.82" y2="23.91"/><line class="cls-5" x1="41.82" y1="28.91" x2="11.82" y2="28.91"/><line class="cls-5" x1="41.82" y1="33.91" x2="11.82" y2="33.91"/><line class="cls-5" x1="16.82" y1="18.91" x2="16.82" y2="23.91"/></g></g></svg>