<svg xmlns="http://www.w3.org/2000/svg" viewBox="0 0 52.94 52.94"><defs><style>.cls-1{fill:none;stroke:#555859;stroke-miterlimit:10;stroke-width:1.94px;}.cls-2{fill:#555859;}</style></defs><title>Asset 14</title><g id="Layer_2" data-name="Layer 2"><g id="Layer_1-2" data-name="Layer 1"><circle class="cls-1" cx="26.47" cy="26.47" r="25.5"/><path class="cls-2" d="M40.26,30.47a.3.3,0,0,1-.17-.31c.06-.44,1.42-10.65-7.25-13.49l-1.74,0v2h-.59V13.84H22.43v4.77h-.59v-2H20.25l-.16,0c-8.72,2.85-7.26,13.38-7.24,13.49a.3.3,0,0,1-.17.31l-2.15,1V35.1H42.41V31.47ZM20.36,17.76h.36v2h2.82V15H29.4v4.77h2.82v-2h.36C40.27,20.34,39,29.61,39,30a1.4,1.4,0,0,0,.8,1.48l1.5.7V34H11.64V32.18l1.51-.7A1.4,1.4,0,0,0,14,30C13.94,29.91,12.78,20.3,20.36,17.76Z"/></g></g></svg>