<svg xmlns="http://www.w3.org/2000/svg" viewBox="0 0 41.23 44.37"><defs><style>.cls-1{fill:#606060;}</style></defs><title>Asset 18</title><g id="Layer_2" data-name="Layer 2"><g id="Layer_1-2" data-name="Layer 1"><path id="LOGO" class="cls-1" d="M38.34,35.93a6.61,6.61,0,0,1-4.05,5.2,7.66,7.66,0,0,1-6.75-.71,20.73,20.73,0,0,1-5.06-4.31c2.93-3.6,4.71-6.88,5.37-9.81s.14-5.21-1-6.8a7.49,7.49,0,0,0-6.27-3.15c-5.08,0-8.71,4.41-7.24,10,.67,2.93,2.49,6.26,5.38,9.86a19.77,19.77,0,0,1-5.07,4.3,7.66,7.66,0,0,1-6.75.72,6.62,6.62,0,0,1-4-5.2,7.48,7.48,0,0,1,.4-3.47c.13-.44.36-.88.58-1.42.31-.71.66-1.46,1-2.22l0-.09C6.11,26.24,15.39,6.65,17.15,4.57A4.66,4.66,0,0,1,20.7,2.93c2.47,0,3.82,1.64,4.8,3.6,1.74,3.26,6.57,12.88,10.93,22.3v0c.35.71.66,1.51,1,2.22.22.54.44,1,.58,1.42a7.7,7.7,0,0,1,.31,3.42ZM20.61,33.85a22,22,0,0,1-4.48-8.27A5.81,5.81,0,0,1,16.7,21a4.73,4.73,0,0,1,3.91-2c3.2,0,5.4,2.52,4.49,6.53a22.55,22.55,0,0,1-4.49,8.27Zm20-2.31c-.23-.54-.45-1.11-.67-1.6-.36-.8-.71-1.56-1-2.27l-.05,0c-5.53-12-9.45-19.31-11-22.43a13.13,13.13,0,0,0-1.6-2.45A7.2,7.2,0,0,0,20.66,0,7.47,7.47,0,0,0,15,2.67C12.87,5.18,3.74,24.54,2.36,27.54l0,.09c-.31.71-.66,1.46-1,2.26-.22.49-.44,1-.66,1.6a10,10,0,0,0-.54,4.8,9.43,9.43,0,0,0,5.78,7.37,10.38,10.38,0,0,0,9.19-.89,22.41,22.41,0,0,0,5.51-4.62,23,23,0,0,0,5.51,4.62,10.39,10.39,0,0,0,9.19.89,9.41,9.41,0,0,0,5.78-7.37,8.49,8.49,0,0,0-.4-4.75Z"/></g></g></svg>