<svg id="Layer_1" data-name="Layer 1" xmlns="http://www.w3.org/2000/svg" viewBox="0 0 42.61 66.73"><defs><style>.cls-1{fill:#606060;}</style></defs><title>point premium_12</title><g id="Layer_1-2" data-name="Layer 1-2"><path class="cls-1" d="M21.28,33.87c-8.49,0-15.44-6.4-15.51-14.33S12.61,5,21.17,4.93h.16c8.49,0,15.44,6.4,15.51,14.34a13.88,13.88,0,0,1-4.5,10.3,16,16,0,0,1-10.91,4.3Zm0-26.44H21.2C14,7.49,8.2,12.92,8.27,19.52s5.89,11.85,13,11.85h.13a13.53,13.53,0,0,0,9.22-3.62,11.42,11.42,0,0,0,3.71-8.46c0-6.57-5.88-11.86-13-11.86Z" transform="translate(0 0.04)"/><polygon class="cls-1" points="20.9 10.9 22.65 16.56 28.3 16.56 23.73 20.06 25.48 25.71 20.9 22.22 16.32 25.71 18.07 20.06 13.49 16.56 19.15 16.56 20.9 10.9"/><path class="cls-1" d="M21.75,2.15c10.51,0,18.55,8.15,18.71,19C40.58,29,35.81,36,32.21,40.57s-7.47,9.81-9.72,15.22c-.46,1.09-.85,2.09-1.19,3-.33-.89-.72-1.89-1.18-3-2.25-5.41-6-10.52-9.72-15.22S2,29,2.15,21.11c.16-10.81,8.2-19,18.71-19h.89m0-2.15h-.89C8.81,0,.17,9.53,0,21.07-.12,29,4,35.91,8.71,41.9c3.52,4.45,7.24,9.45,9.43,14.71,2.85,6.85,3,9.32,3.06,10.08h.21c.05-.76.2-3.23,3.06-10.08,2.19-5.26,5.91-10.26,9.42-14.71,4.73-6,8.83-12.94,8.72-20.83C42.44,9.53,33.8,0,21.75,0Z" transform="translate(0 0.04)"/></g></svg>