<svg xmlns="http://www.w3.org/2000/svg" viewBox="0 0 42.61 66.69"><defs><style>.cls-1{fill:#606060;}</style></defs><title>point premium_1</title><g id="Layer_2" data-name="Layer 2"><g id="Layer_1-2" data-name="Layer 1"><path class="cls-1" d="M21.28,33.87c-8.49,0-15.44-6.4-15.51-14.33S12.61,5,21.17,4.93h.16c8.49,0,15.44,6.4,15.51,14.34a13.88,13.88,0,0,1-4.5,10.3,16,16,0,0,1-10.91,4.3Zm0-26.44H21.2c-7.19.06-13,5.49-12.93,12.09s5.89,11.85,13,11.85h.13a13.52,13.52,0,0,0,9.22-3.62,11.41,11.41,0,0,0,3.71-8.46C34.28,12.72,28.45,7.43,21.33,7.43Z"/><polygon class="cls-1" points="20.9 10.86 22.65 16.52 28.3 16.52 23.73 20.02 25.48 25.67 20.9 22.18 16.32 25.67 18.07 20.02 13.49 16.52 19.15 16.52 20.9 10.86"/><path class="cls-1" d="M21.75,2.15c10.51,0,18.55,8.15,18.71,19C40.58,29,35.81,36,32.21,40.57s-7.47,9.81-9.72,15.22c-.46,1.09-.85,2.09-1.19,3-.33-.89-.72-1.89-1.18-3-2.25-5.41-6-10.52-9.72-15.22S2,29,2.15,21.11c.16-10.81,8.2-19,18.71-19h.89m0-2.15h-.89C8.81,0,.17,9.53,0,21.07-.12,29,4,35.91,8.71,41.9c3.52,4.45,7.24,9.45,9.43,14.71,2.85,6.85,3,9.32,3.06,10.08h.21c.05-.76.2-3.23,3.06-10.08,2.19-5.26,5.91-10.26,9.42-14.71,4.73-6,8.83-12.94,8.72-20.83C42.44,9.53,33.8,0,21.75,0Z"/></g></g></svg>