<svg xmlns="http://www.w3.org/2000/svg" viewBox="0 0 42.79 67.18"><defs><style>.cls-1,.cls-2{fill:none;stroke:#606060;stroke-miterlimit:10;}.cls-1{stroke-width:2px;}</style></defs><title>Asset 19</title><g id="Layer_2" data-name="Layer 2"><g id="Layer_1-2" data-name="Layer 1"><path class="cls-1" d="M21.77,62.44a1,1,0,0,0,0-.29A1,1,0,0,0,21.77,62.44ZM21.22,1C10,1.1.9,9.88,1,20.61a18.69,18.69,0,0,0,.73,5c1.23,6.7,6.38,12.34,7.75,14,1.69,2,3.84,4.95,5.66,7.67a43.06,43.06,0,0,1,3.34,5.68c2.77,6.24,3.23,8.5,3.29,9.21.05-.71.46-3,3.13-9.27a39.59,39.59,0,0,1,2.87-5.18,98.92,98.92,0,0,1,5.89-8.32C35,37.7,40,32,41.15,25.25a18.84,18.84,0,0,0,.64-5C41.69,9.52,32.48.9,21.22,1Z"/><path class="cls-1" d="M35.68,19.83c.06,7.31-6.28,13.28-14.17,13.35S7.18,27.39,7.11,20.09,13.39,6.81,21.28,6.74,35.61,12.53,35.68,19.83Z"/><polygon class="cls-2" points="20.99 11.42 22.74 17.08 28.39 17.08 23.82 20.57 25.57 26.23 20.99 22.73 16.41 26.23 18.16 20.57 13.59 17.08 19.24 17.08 20.99 11.42"/></g></g></svg>