<svg xmlns="http://www.w3.org/2000/svg" viewBox="0 0 167.99 167.99"><defs><style>.cls-1{fill:#575756;}.cls-2{fill:#fff;}</style></defs><title>logo homew y favicon</title><g id="Layer_2" data-name="Layer 2"><g id="Layer_1-2" data-name="Layer 1"><path class="cls-1" d="M168,84A84,84,0,1,1,84,0a84,84,0,0,1,84,84"/><path class="cls-2" d="M11.08,114v-2.79h8.37V42.27h-8V39.48A93.49,93.49,0,0,0,31.5,37.81v73.41h8.14V114Z"/><path class="cls-2" d="M39.42,114v-2.79h8.14V72.61H39.42V69.82c6.58.23,13.39-.22,20.19-.44v41.84h8.26V114ZM52.7,55.54c-3.46,0-6-3.45-6-6.69a6.48,6.48,0,0,1,6-6c3.23,0,6.58,2.67,6.58,6a6.48,6.48,0,0,1-6.58,6.69"/><polygon class="cls-2" points="93.98 69.83 93.98 72.61 86.95 72.61 98.11 100.51 109.93 72.61 102.23 72.61 102.23 69.83 119.3 69.83 119.3 72.61 113.28 72.61 95.32 115.68 92.42 115.68 74.34 72.61 68.65 72.61 68.65 69.83 93.98 69.83"/><path class="cls-2" d="M136.15,89.35v8.92c0,7.81.45,15.18,9.93,15.18,8,0,14.17-5.8,16.4-13.39h2.79c-2.9,10.82-10.6,15.62-21.42,15.62-12.16,0-21-11.72-21-23.09,0-12.28,10-23.43,22.2-23.43,10.37,0,20,7.14,20,18.18,0,2.34-1,2-2.79,2Zm16.29-2.79c0-7.47,1.9-15.17-8-15.17-9.26,0-8.26,8.14-8.26,15.17Z"/></g></g></svg>