<?xml version="1.0" encoding="utf-8"?>
<!-- Generator: Adobe Illustrator 22.1.0, SVG Export Plug-In . SVG Version: 6.00 Build 0)  -->
<svg version="1.1" id="Layer_1" xmlns="http://www.w3.org/2000/svg" xmlns:xlink="http://www.w3.org/1999/xlink" x="0px" y="0px"
	 viewBox="0 0 455 172" style="enable-background:new 0 0 455 172;" xml:space="preserve">
<style type="text/css">
	.st0{fill:#575756;}
</style>
<g>
	<g>
		<path class="st0" d="M145.6,79.1c0,7.7-4.4,11.8-12,11.8c-7.9,0-12.5-3.6-12.5-11.8V59.6h4.1v19.5c0,5.4,3.1,8.3,8.5,8.3
			c5.1,0,8-3,8-8.3V59.6h4.1V79.1z"/>
		<path class="st0" d="M150.3,68.1h3.4v4.7h0.1c1.8-3.6,4.2-5.3,8.1-5.2v3.8c-5.9,0-8,3.3-8,8.9v9.8h-3.6V68.1z"/>
		<path class="st0" d="M163.7,59.6h3.6v11.4h0.1c1.2-2.4,4-3.5,7.1-3.5c6.8,0,10.2,5.4,10.2,11.6c0,6.2-3.3,11.5-10.1,11.5
			c-2.3,0-5.5-0.9-7.1-3.5h-0.1v3h-3.6V59.6z M174,70.8c-4.9,0-6.8,4.2-6.8,8.3c0,4.4,2,8.4,7,8.4c5,0,6.6-4.2,6.6-8.6
			C180.8,74.8,178.7,70.8,174,70.8"/>
		<path class="st0" d="M207.5,90.1c-0.6,0.4-1.5,0.6-2.6,0.6c-1.9,0-3.1-1-3.1-3.4c-2,2.4-4.7,3.4-7.8,3.4c-4,0-7.3-1.8-7.3-6.2
			c0-5,3.7-6.1,7.5-6.8c4-0.8,7.4-0.5,7.4-3.3c0-3.2-2.6-3.7-4.9-3.7c-3.1,0-5.3,0.9-5.5,4.2h-3.6c0.2-5.5,4.4-7.4,9.4-7.4
			c4,0,8.3,0.9,8.3,6.1V85c0,1.7,0,2.5,1.2,2.5c0.3,0,0.6,0,1.1-0.2V90.1z M201.6,78.8c-1.4,1-4.1,1.1-6.6,1.5
			c-2.4,0.4-4.4,1.3-4.4,4c0,2.4,2.1,3.3,4.3,3.3c4.8,0,6.8-3,6.8-5V78.8z"/>
		<path class="st0" d="M209.8,68.1h3.4v3.5h0.1c1.5-2.7,4-4,7.2-4c5.8,0,7.6,3.3,7.6,8.1v14.5h-3.6v-15c0-2.7-1.7-4.4-4.5-4.4
			c-4.4,0-6.5,3-6.5,6.9v12.5h-3.6V68.1z"/>
		<polygon class="st0" points="253.2,88.6 253.2,90.2 232.5,90.2 232.5,59.6 253,59.6 253,61.3 234.3,61.3 234.3,73.5 251.9,73.5 
			251.9,75.1 234.3,75.1 234.3,88.6 		"/>
		<path class="st0" d="M255.8,82.9c0.3,4.1,3.3,6.4,7.3,6.4c2.9,0,7-0.9,7-4.7c0-3.7-3.8-4.3-7.5-5c-3.8-0.8-7.6-1.8-7.6-6.2
			c0-4.4,4.2-5.6,8-5.6c4.7,0,8.1,2,8.1,7h-1.6c0-4-2.8-5.6-6.5-5.6c-3,0-6.3,1.1-6.3,4.2c0,3.5,3.8,4.1,7.3,4.8
			c4.4,0.8,7.8,1.8,7.8,6.5c0,4.7-4.7,6.1-8.6,6.1c-5,0-8.8-2.7-8.9-7.8H255.8z"/>
		<path class="st0" d="M282.6,69.6h-4.8V85c0,3.5,1.7,3.9,4.7,3.8v1.4c-3.3,0.2-6.5-0.3-6.4-5.2V69.6h-4.1v-1.4h4.1v-6.8h1.6v6.8
			h4.8V69.6z"/>
		<path class="st0" d="M300.8,86.1c0,1.3,0,2.7,1.5,2.7c0.3,0,0.7,0,1.2-0.1V90c-0.5,0.1-0.9,0.2-1.3,0.2c-2.6,0-3-1.4-3-3.2v-1.2
			h-0.1c-1,2.6-4,4.9-8.2,4.9c-4.1,0-7.4-1.6-7.4-6.2c0-5.1,4.4-6.2,8.1-6.5c7.3-0.5,7.6-1,7.6-4.6c0-1-1.1-4.3-6.1-4.3
			c-3.9,0-6.5,2.1-6.8,5.9h-1.6c0.2-4.8,3.2-7.3,8.4-7.3c3.8,0,7.7,1.2,7.7,5.7V86.1z M299.1,77.7c-1.3,1.5-4.8,1.3-8,1.7
			c-3.8,0.4-6,1.8-6,5.1c0,2.7,1.9,4.8,5.8,4.8c7.4,0,8.2-6.3,8.2-7.5V77.7z"/>
		<path class="st0" d="M313,69.6h-4.8V85c0,3.5,1.7,3.9,4.7,3.8v1.4c-3.3,0.2-6.5-0.3-6.4-5.2V69.6h-4.1v-1.4h4.1v-6.8h1.6v6.8h4.8
			V69.6z"/>
		<path class="st0" d="M315.5,79.4c-0.1,5.2,2.7,9.9,8.1,9.9c4.1,0,7.1-2.5,7.9-6.5h1.6c-0.9,5.1-4.3,8-9.5,8c-6.4,0-9.8-5-9.7-11.1
			c-0.1-6,3.1-11.9,9.7-11.9c6.9,0,10,5.4,9.7,11.7H315.5z M331.7,78c-0.1-4.6-3-8.9-8-8.9c-4.9,0-7.7,4.5-8.1,8.9H331.7z"/>
	</g>
	<g>
		<path class="st0" d="M126.1,111.5h-1.5l-3.5-9.9h1.4l2.8,8.5h0l2.8-8.5h1.4L126.1,111.5z"/>
		<path class="st0" d="M130.9,101.6h1.3v9.9h-1.3V101.6z"/>
		<path class="st0" d="M138.4,111.5h-1.5l-3.5-9.9h1.4l2.8,8.5h0l2.8-8.5h1.4L138.4,111.5z"/>
		<path class="st0" d="M144.2,99h1.5l-1.8,2H143L144.2,99z M143.2,101.6h1.3v9.9h-1.3V101.6z"/>
		<path class="st0" d="M150.9,101.6h1.8l3.1,8.3l3.1-8.3h1.8v9.9h-1.2v-8.2h0l-3.1,8.2h-1.1l-3.1-8.2h0v8.2h-1.2V101.6z"/>
		<path class="st0" d="M163,101.6h6.8v1.1h-5.5v3.1h5.1v1.1h-5.1v3.4h5.5v1.1H163V101.6z"/>
		<path class="st0" d="M176.6,109c0,1.3-0.7,2.7-2.9,2.7c-1.8,0-2.9-1-2.9-2.9v-0.6h1.3v0.4c0,1.1,0.3,2,1.6,2
			c1.2,0,1.6-0.7,1.6-1.8v-7.2h1.3V109z"/>
		<path class="st0" d="M183,101.4c3.1,0,4.7,2.5,4.7,5.2c0,2.7-1.6,5.2-4.7,5.2c-3.1,0-4.7-2.5-4.7-5.2
			C178.3,103.9,179.9,101.4,183,101.4z M183,110.6c2.4,0,3.4-2.1,3.4-4.1c0-2-1-4.1-3.4-4.1c-2.4,0-3.4,2.1-3.4,4.1
			C179.6,108.6,180.6,110.6,183,110.6z"/>
		<path class="st0" d="M189.5,101.6h4.6c1.8,0,3,1,3,2.6c0,1.2-0.5,2.2-1.7,2.5v0c1.1,0.2,1.4,1.1,1.5,2c0.1,1,0,2,0.6,2.7H196
			c-0.4-0.4-0.2-1.5-0.4-2.4c-0.1-1-0.4-1.8-1.6-1.8h-3.2v4.2h-1.3V101.6z M193.5,106.2c1.2,0,2.3-0.3,2.3-1.8c0-1-0.5-1.7-1.8-1.7
			h-3.3v3.4H193.5z"/>
		<path class="st0" d="M206.9,111.5h-1.5l-3.5-9.9h1.4l2.8,8.5h0l2.8-8.5h1.4L206.9,111.5z"/>
		<path class="st0" d="M211.7,101.6h1.3v9.9h-1.3V101.6z"/>
		<path class="st0" d="M219.2,111.5h-1.5l-3.5-9.9h1.4l2.8,8.5h0l2.8-8.5h1.4L219.2,111.5z"/>
		<path class="st0" d="M225,99h1.5l-1.8,2h-0.9L225,99z M224,101.6h1.3v9.9H224V101.6z"/>
		<path class="st0" d="M238.6,104.6c-0.3-1.4-1.4-2.1-2.8-2.1c-2.3,0-3.3,1.9-3.3,4c0,2.2,1,4.1,3.4,4.1c1.7,0,2.7-1.2,2.8-2.8h1.3
			c-0.2,2.5-1.8,3.9-4.3,3.9c-3.1,0-4.6-2.3-4.6-5.1c0-2.9,1.6-5.2,4.7-5.2c2.1,0,3.8,1.1,4.1,3.2H238.6z"/>
		<path class="st0" d="M245.9,101.4c3.1,0,4.7,2.5,4.7,5.2c0,2.7-1.6,5.2-4.7,5.2c-3.1,0-4.7-2.5-4.7-5.2
			C241.2,103.9,242.8,101.4,245.9,101.4z M245.9,110.6c2.4,0,3.4-2.1,3.4-4.1c0-2-1-4.1-3.4-4.1c-2.4,0-3.4,2.1-3.4,4.1
			C242.5,108.6,243.5,110.6,245.9,110.6z"/>
		<path class="st0" d="M252.4,101.6h1.8l3.1,8.3l3.1-8.3h1.8v9.9H261v-8.2h0l-3.1,8.2h-1.1l-3.1-8.2h0v8.2h-1.2V101.6z"/>
		<path class="st0" d="M268.7,101.4c3.1,0,4.7,2.5,4.7,5.2c0,2.7-1.6,5.2-4.7,5.2c-3.1,0-4.7-2.5-4.7-5.2
			C264,103.9,265.6,101.4,268.7,101.4z M268.7,110.6c2.4,0,3.4-2.1,3.4-4.1c0-2-1-4.1-3.4-4.1c-2.4,0-3.4,2.1-3.4,4.1
			C265.3,108.6,266.3,110.6,268.7,110.6z"/>
		<path class="st0" d="M287.2,112.4l-1.5-1.2c-0.6,0.4-1.4,0.6-2.4,0.6c-3.1,0-4.7-2.5-4.7-5.2c0-2.7,1.6-5.2,4.7-5.2
			c3.1,0,4.7,2.5,4.7,5.2c0,1.5-0.5,3-1.5,3.9l1.3,1L287.2,112.4z M284.3,108.7l1.3,1c0.8-0.8,1.1-2,1.1-3.2c0-2-1-4.1-3.4-4.1
			s-3.4,2.1-3.4,4.1c0,2,1,4.1,3.4,4.1c0.5,0,1-0.1,1.4-0.3l-1.1-0.9L284.3,108.7z"/>
		<path class="st0" d="M297.6,107.9c0,2.5-1.4,3.8-3.9,3.8c-2.5,0-4-1.2-4-3.8v-6.3h1.3v6.3c0,1.7,1,2.7,2.7,2.7
			c1.7,0,2.6-1,2.6-2.7v-6.3h1.3V107.9z"/>
		<path class="st0" d="M299.9,101.6h6.8v1.1h-5.5v3.1h5.1v1.1h-5.1v3.4h5.5v1.1h-6.8V101.6z"/>
		<path class="st0" d="M308.4,101.6h4.6c1.9,0,3,1,3,2.6c0,1.2-0.5,2.2-1.7,2.5v0c1.1,0.2,1.4,1.1,1.5,2c0.1,1,0,2,0.6,2.7H315
			c-0.4-0.4-0.2-1.5-0.4-2.4c-0.1-1-0.4-1.8-1.6-1.8h-3.2v4.2h-1.3V101.6z M312.5,106.2c1.2,0,2.3-0.3,2.3-1.8c0-1-0.5-1.7-1.8-1.7
			h-3.3v3.4H312.5z"/>
		<path class="st0" d="M318,101.6h6.8v1.1h-5.5v3.1h5.1v1.1h-5.1v3.4h5.5v1.1H318V101.6z M321.5,99h1.5l-1.8,2h-0.9L321.5,99z"/>
		<path class="st0" d="M332.3,104.5c-0.2-1.4-1.1-2-2.4-2c-1.1,0-2.2,0.4-2.2,1.7c0,1.2,1.6,1.4,3.2,1.8c1.6,0.4,3.1,0.9,3.1,2.8
			c0,2.1-2.1,2.9-3.9,2.9c-2.2,0-4.1-1.1-4.1-3.5h1.2c0,1.7,1.4,2.4,2.9,2.4c1.2,0,2.5-0.4,2.5-1.8c0-1.4-1.6-1.6-3.1-1.9
			c-1.6-0.3-3.2-0.8-3.2-2.6c0-2,1.8-2.9,3.6-2.9c2,0,3.5,1,3.6,3.1H332.3z"/>
	</g>
</g>
</svg>
