<svg xmlns="http://www.w3.org/2000/svg" viewBox="0 0 300.31 45.37"><defs><style>.cls-1{fill:#fff;}</style></defs><title>Asset 1</title><g id="Layer_2" data-name="Layer 2"><g id="Layer_1-2" data-name="Layer 1"><path class="cls-1" d="M36.16,26.57a59.46,59.46,0,0,1-2.24,8.5c-3,7.32-9.74,10.3-17.25,10.3-13,0-18.62-6.95-16.07-19.3L6.12,0H12L6.18,27.56C4.2,36.12,8.11,40.4,16.67,40.4c9.68,0,11.79-5.52,13.53-13.83L35.78,0h5.9Z"/><path class="cls-1" d="M47.7,12.23h5l-1.55,6.89h.12c2.49-4.41,6.27-7.64,11.67-7.64a9.63,9.63,0,0,1,1.86,0l-1.24,5.65A13.3,13.3,0,0,0,62,17.07a10.75,10.75,0,0,0-3.16.31A11.68,11.68,0,0,0,52,22.59c-1.43,2.05-2.17,5.09-2.67,7.51l-3,14.21H41Z"/><path class="cls-1" d="M71,0h5.28L72.89,16.2l.13.13a12.28,12.28,0,0,1,9.8-4.85c8.57,0,12.6,5.65,12.6,13.84,0,10-6.08,19.74-16.94,19.74-5.9,0-10.12-3.54-10.8-6.7h-.12l-1.18,6H61.66ZM82.82,16.14c-9.24,0-13.09,9.43-13.09,16.26,0,5,3.53,8,8.75,8,7.63,0,11.67-8.81,11.67-15.08C90.15,20.24,87.72,16.14,82.82,16.14Z"/><path class="cls-1" d="M102.06,21.91c1-7.14,7.07-10.43,13.9-10.43,6.21,0,11.73,1.68,11.73,8.2a31.17,31.17,0,0,1-1,5.83l-2,8.75a25.93,25.93,0,0,0-.87,4.59c0,1.49.68,2,1.55,2A5.5,5.5,0,0,0,127,40.4l-.81,3.91a8.13,8.13,0,0,1-3.23.75c-2.91,0-4.47-1.74-4.15-4.53l-.13-.13c-2.23,3-5.34,4.66-10.74,4.66s-9.8-2.48-9.8-9.06c0-9.31,9.12-9.93,16.2-10.55,5.58-.5,8.06-.81,8.06-5.09,0-3.48-3.66-4.22-6.45-4.22-4,0-8,1.61-8.63,5.77ZM109.2,40.4c4.09,0,7.13-1.36,9-4.22,1.74-2.42,2-5.27,2.8-8.25h-.13c-2.29,1.37-6.45,1.68-10.3,2.17s-7.14,1.74-7.14,5.84C103.42,38.92,106.22,40.4,109.2,40.4Z"/><path class="cls-1" d="M137.43,12.23h5.09l-1,4.84h.12a14.23,14.23,0,0,1,11.42-5.59c6,0,8.94,2.61,8.94,8.26a33.88,33.88,0,0,1-.93,6.27l-3.91,18.3h-5.28L156,25.57a35.42,35.42,0,0,0,.74-5c0-3-2.48-4.47-5.58-4.47a11.57,11.57,0,0,0-8,3.72c-1.86,1.62-2.85,4.16-3.53,6.71l-3.73,17.74h-5.27Z"/><path class="cls-1" d="M174.54,0h21.17c8-.12,13.21,3,13.21,11.61a11.86,11.86,0,0,1-10.17,11.91v.13c3.66,1.12,4.59,4.34,4.59,7.82,0,2-.31,5-.31,7.69a15.48,15.48,0,0,0,.62,5.15h-9.5a13.15,13.15,0,0,1-.43-3c0-3,.5-6,.5-9,0-4.29-2.55-5.34-6.4-5.34h-9.18L175,44.31h-9.75Zm5.59,20.05h9c5.15-.06,10.05-2.05,10.05-7,0-4.78-3.35-5.47-7.2-5.47h-9.25Z"/><path class="cls-1" d="M216.31,30.41c-.07.81-.07,1.37-.07,1.86,0,3.73,2.3,6.27,7.08,6.27,3.54,0,5.27-2.36,6.58-4.4h8.81c-2.79,7.2-7.38,11-16.63,11-8.57,0-14.28-4.9-14.28-14,0-10.24,6.77-19.8,17.69-19.8,8.94,0,15,4.72,15,14a26,26,0,0,1-.5,5ZM232,24.83c0-3.29-.81-6.83-6-6.83-5,0-7.45,3.23-8.75,6.83Z"/><path class="cls-1" d="M247.87,12.23h8.44l-1,4.47h.12a13.83,13.83,0,0,1,11.24-5.34c6.08,0,9.37,3,9.37,8.63a39.22,39.22,0,0,1-.93,5.52l-4,18.8h-8.81l3.91-18.8a21.8,21.8,0,0,0,.56-3.91c0-1.92-2.17-3.29-4.22-3.29-5.34,0-8.07,4.47-9,8.94L250,44.31h-8.81Z"/><path class="cls-1" d="M294,12.23h6.33L299,18.13h-6.27l-3.29,15.94a13.41,13.41,0,0,0-.25,1.49c0,2.3,1.68,2.36,3,2.36a27.9,27.9,0,0,0,3.16-.18l-1.48,6.82a53,53,0,0,1-5.53.31c-4.09,0-8.5-1.3-8.38-6.51a15.32,15.32,0,0,1,.44-3l3.6-17.19h-5.77l1.36-5.9h5.65l2-9.74H296Z"/></g></g></svg>