<svg xmlns="http://www.w3.org/2000/svg" viewBox="0 0 427.23 64.98"><defs><style>.cls-1{fill:#fff;stroke:#fff;stroke-miterlimit:10;stroke-width:0.52px;}</style></defs><title>Asset 1</title><g id="Layer_2" data-name="Layer 2"><g id="Layer_1-2" data-name="Layer 1"><path class="cls-1" d="M51.63,38c-1.06,4.85-2.12,9.61-3.18,12.08-4.23,10.4-13.84,14.64-24.51,14.64C5.52,64.72-2.51,54.84,1.11,37.3L9,.27h8.37L9,39.41c-2.82,12.17,2.74,18.25,14.9,18.25C37.7,57.66,40.7,49.82,43.16,38L51.1.27h8.38Z"/><path class="cls-1" d="M68,17.64h7.06l-2.21,9.78h.18c3.53-6.26,8.9-10.84,16.57-10.84a13,13,0,0,1,2.65,0l-1.76,8a18.15,18.15,0,0,0-2.21-.09,15.27,15.27,0,0,0-4.49.44,16.56,16.56,0,0,0-9.7,7.41c-2,2.91-3.09,7.23-3.79,10.67L66,63.22H58.5Z"/><path class="cls-1" d="M101.17.27h7.5l-4.85,23,.17.17a17.5,17.5,0,0,1,13.93-6.87c12.17,0,17.9,8,17.9,19.66,0,14.19-8.64,28-24.07,28-8.37,0-14.37-5-15.34-9.53h-.17l-1.68,8.47h-6.7Zm16.75,22.92c-13.13,0-18.6,13.4-18.6,23.1,0,7.14,5,11.37,12.43,11.37,10.85,0,16.58-12.52,16.58-21.42C128.33,29,124.89,23.19,117.92,23.19Z"/><path class="cls-1" d="M145.25,31.39c1.5-10.14,10.05-14.81,19.75-14.81,8.82,0,16.67,2.38,16.67,11.64,0,2.55-.89,5.81-1.41,8.28l-2.91,12.43c-.36,1.86-1.24,4.41-1.24,6.53s1,2.82,2.21,2.82a7.84,7.84,0,0,0,2.38-.62l-1.15,5.56A11.76,11.76,0,0,1,175,64.28c-4.15,0-6.35-2.47-5.91-6.44l-.18-.18c-3.17,4.24-7.58,6.62-15.25,6.62S139.7,60.75,139.7,51.4c0-13.22,13-14.1,23-15,7.94-.71,11.46-1.15,11.46-7.23,0-4.94-5.2-6-9.17-6-5.73,0-11.37,2.29-12.25,8.2Zm10.14,26.27c5.82,0,10.14-1.94,12.79-6,2.47-3.44,2.91-7.5,4-11.73H172c-3.26,1.94-9.17,2.38-14.64,3.09s-10.14,2.47-10.14,8.29C147.19,55.55,151.16,57.66,155.39,57.66Z"/><path class="cls-1" d="M195.51,17.64h7.23l-1.41,6.87h.17a20.21,20.21,0,0,1,16.22-7.93c8.56,0,12.7,3.7,12.7,11.72a48.44,48.44,0,0,1-1.32,8.91l-5.56,26h-7.49l5.82-26.63a50.75,50.75,0,0,0,1.06-7.05c0-4.32-3.53-6.35-7.94-6.35-4.14,0-8.46,2.29-11.28,5.29-2.65,2.29-4.06,5.91-5,9.52l-5.29,25.22H185.9Z"/><path class="cls-1" d="M248.23.27h30.06c11.38-.18,18.78,4.32,18.78,16.48a16.85,16.85,0,0,1-14.46,16.93v.18c5.21,1.59,6.53,6.17,6.53,11.11,0,2.82-.44,7.05-.44,10.93a22.06,22.06,0,0,0,.88,7.32H276.09a18.33,18.33,0,0,1-.62-4.23c0-4.24.71-8.56.71-12.79,0-6.08-3.62-7.58-9.08-7.58H254.05l-5.2,24.6H235Zm7.93,28.47H269c7.32-.08,14.28-2.9,14.28-10C283.23,12,278.47,11,273,11H259.87Z"/><path class="cls-1" d="M307.56,43.47c-.09,1.14-.09,1.94-.09,2.64,0,5.29,3.27,8.91,10,8.91,5,0,7.5-3.35,9.35-6.26h12.52c-4,10.23-10.49,15.69-23.63,15.69-12.17,0-20.28-7-20.28-19.92,0-14.55,9.61-28.13,25.13-28.13,12.7,0,21.25,6.7,21.25,19.93a37.09,37.09,0,0,1-.71,7.14Zm22.22-7.94c0-4.67-1.15-9.69-8.46-9.69-7.06,0-10.58,4.58-12.44,9.69Z"/><path class="cls-1" d="M352.4,17.64h12L363,24h.18a19.66,19.66,0,0,1,16-7.58c8.64,0,13.31,4.32,13.31,12.26a54.08,54.08,0,0,1-1.32,7.84l-5.64,26.72H373L378.5,36.5a30.57,30.57,0,0,0,.8-5.55c0-2.73-3.09-4.67-6-4.67-7.58,0-11.46,6.34-12.78,12.69L355.4,63.22H342.88Z"/><path class="cls-1" d="M417.91,17.64h9L425,26h-8.9l-4.67,22.66a19.48,19.48,0,0,0-.36,2.12c0,3.26,2.38,3.35,4.24,3.35a37.7,37.7,0,0,0,4.49-.27l-2.11,9.7a78.08,78.08,0,0,1-7.85.44c-5.82,0-12.08-1.85-11.9-9.26a22.26,22.26,0,0,1,.61-4.32L403.63,26h-8.2l1.94-8.37h8l2.82-13.85h12.52Z"/></g></g></svg>