<svg id="Layer_1" data-name="Layer 1" xmlns="http://www.w3.org/2000/svg" viewBox="0 0 401.2 59.09"><defs><style>.cls-1{fill:#ffffff;}</style></defs><title>URBAN-ESTATE-LOGO</title><path class="cls-1" d="M237.72,280.57c0,14.55-8.32,22.23-22.71,22.23-14.87,0-23.68-6.87-23.68-22.23V243.71H199v36.86c0,10.18,5.82,15.76,16,15.76,9.7,0,15-5.58,15-15.76V243.71h7.67Z" transform="translate(-191.33 -243.71)"/><path class="cls-1" d="M246.63,259.63h6.47v8.82h.16c3.31-6.72,7.92-10,15.35-9.79v7.28c-11.07,0-15.11,6.3-15.11,16.89v18.59h-6.87Z" transform="translate(-191.33 -243.71)"/><path class="cls-1" d="M272,243.71h6.87v21.58h.16c2.26-4.61,7.6-6.63,13.33-6.63,12.86,0,19.24,10.19,19.24,22s-6.3,21.74-19.08,21.74c-4.28,0-10.42-1.61-13.49-6.54h-.16v5.57H272Zm19.39,21c-9.21,0-12.77,7.92-12.77,15.76,0,8.24,3.72,15.84,13.18,15.84s12.53-8,12.53-16.16C304.35,272.32,300.31,264.73,291.41,264.73Z" transform="translate(-191.33 -243.71)"/><path class="cls-1" d="M354.71,301.26a9.22,9.22,0,0,1-4.93,1.13c-3.55,0-5.82-1.94-5.82-6.46a18.54,18.54,0,0,1-14.71,6.46c-7.59,0-13.82-3.39-13.82-11.72,0-9.45,7-11.47,14.15-12.85,7.59-1.46,14.06-1,14.06-6.14,0-6-4.93-6.95-9.29-6.95-5.82,0-10.11,1.77-10.43,7.92h-6.87c.4-10.35,8.4-14,17.7-14,7.52,0,15.68,1.7,15.68,11.48v21.5c0,3.24,0,4.69,2.18,4.69a5.9,5.9,0,0,0,2.1-.4Zm-11.15-21.42c-2.67,1.94-7.84,2-12.45,2.83s-8.4,2.43-8.4,7.52c0,4.52,3.88,6.14,8.08,6.14,9,0,12.77-5.66,12.77-9.46Z" transform="translate(-191.33 -243.71)"/><path class="cls-1" d="M359.09,259.63h6.46v6.63h.17c2.91-5.17,7.6-7.6,13.58-7.6,11,0,14.38,6.31,14.38,15.28v27.48h-6.87V273.13c0-5.09-3.23-8.4-8.48-8.4-8.33,0-12.37,5.57-12.37,13.09v23.6h-6.87Z" transform="translate(-191.33 -243.71)"/><path class="cls-1" d="M441.14,298.35v3.07h-39.2V243.71h38.8v3.07H405.5V269.9h33.14V273H405.5v25.38Z" transform="translate(-191.33 -243.71)"/><path class="cls-1" d="M446.08,287.6c.49,7.68,6.23,12.13,13.75,12.13,5.41,0,13.17-1.62,13.17-8.81s-7.11-8.09-14.22-9.54-14.31-3.32-14.31-11.8c0-8.25,8-10.67,15-10.67,8.81,0,15.36,3.8,15.36,13.25h-3.07c-.08-7.51-5.34-10.59-12.29-10.59-5.66,0-12,2.11-12,8,0,6.62,7.11,7.67,13.82,9.13,8.25,1.54,14.71,3.48,14.71,12.21,0,9-9,11.47-16.24,11.47-9.46,0-16.57-5.09-16.82-14.79Z" transform="translate(-191.33 -243.71)"/><path class="cls-1" d="M496.77,262.54h-9v29c0,6.71,3.15,7.36,9,7.2v2.66c-6.3.41-12.37-.48-12-9.86v-29H477v-2.66h7.68V246.94h3.07v12.94h9Z" transform="translate(-191.33 -243.71)"/><path class="cls-1" d="M531.05,293.74c0,2.43,0,5,2.74,5a14.83,14.83,0,0,0,2.27-.25v2.59a14.38,14.38,0,0,1-2.51.32c-4.85,0-5.58-2.66-5.58-6.06v-2.18h-.16c-1.94,4.93-7.52,9.21-15.44,9.21s-13.9-3-13.9-11.72c0-9.7,8.41-11.72,15.28-12.28,13.74-1,14.3-1.86,14.3-8.65,0-1.86-2.1-8.17-11.56-8.17-7.43,0-12.36,3.88-12.77,11.08h-3.07c.41-9.13,6.07-13.74,15.84-13.74,7.28,0,14.56,2.26,14.56,10.83ZM528,277.82c-2.42,2.75-9.05,2.43-15,3.24-7.27.8-11.4,3.39-11.4,9.61,0,5,3.64,9.06,10.91,9.06,14,0,15.52-12,15.52-14.15Z" transform="translate(-191.33 -243.71)"/><path class="cls-1" d="M554.09,262.54H545v29c0,6.71,3.15,7.36,9,7.2v2.66c-6.3.41-12.37-.48-12-9.86v-29h-7.68v-2.66H542V246.94H545v12.94h9.05Z" transform="translate(-191.33 -243.71)"/><path class="cls-1" d="M558.94,281.06c-.16,9.77,5,18.67,15.28,18.67,7.84,0,13.42-4.69,14.87-12.37h3.08c-1.62,9.7-8.09,15-17.95,15-12.12,0-18.51-9.54-18.35-21-.16-11.4,5.82-22.47,18.35-22.47,13,0,18.84,10.26,18.27,22.15Zm30.48-2.67c-.16-8.73-5.66-16.82-15.2-16.82-9.21,0-14.63,8.57-15.28,16.82Z" transform="translate(-191.33 -243.71)"/></svg>