<svg xmlns="http://www.w3.org/2000/svg" viewBox="0 0 212.9 52.8"><defs><style>.cls-1{fill:#ffffff;}</style></defs><title>logo urban</title><g id="Layer_2" data-name="Layer 2"><g id="Layer_1-2" data-name="Layer 1"><path class="cls-1" d="M24.5,19.5c0,7.7-4.4,11.8-12,11.8C4.6,31.3,0,27.7,0,19.5V0H4.1V19.5c0,5.4,3.1,8.3,8.5,8.3,5.1,0,8-3,8-8.3V0h4.1V19.5Z"/><path class="cls-1" d="M29.2,8.5h3.4v4.7h.1c1.8-3.6,4.2-5.3,8.1-5.2v3.8c-5.9,0-8,3.3-8,8.9v9.8H29.2Z"/><path class="cls-1" d="M42.6,0h3.6V11.4h.1c1.2-2.4,4-3.5,7.1-3.5,6.8,0,10.2,5.4,10.2,11.6S60.3,31,53.5,31c-2.3,0-5.5-.9-7.1-3.5h-.1v3H42.7V0ZM52.9,11.2c-4.9,0-6.8,4.2-6.8,8.3,0,4.4,2,8.4,7,8.4s6.6-4.2,6.6-8.6c0-4.1-2.1-8.1-6.8-8.1"/><path class="cls-1" d="M86.4,30.5a4.76,4.76,0,0,1-2.6.6c-1.9,0-3.1-1-3.1-3.4a9.64,9.64,0,0,1-7.8,3.4c-4,0-7.3-1.8-7.3-6.2,0-5,3.7-6.1,7.5-6.8,4-.8,7.4-.5,7.4-3.3,0-3.2-2.6-3.7-4.9-3.7-3.1,0-5.3.9-5.5,4.2H66.5c.2-5.5,4.4-7.4,9.4-7.4,4,0,8.3.9,8.3,6.1V25.4c0,1.7,0,2.5,1.2,2.5a2.56,2.56,0,0,0,1.1-.2v2.8ZM80.5,19.2c-1.4,1-4.1,1.1-6.6,1.5s-4.4,1.3-4.4,4c0,2.4,2.1,3.3,4.3,3.3,4.8,0,6.8-3,6.8-5V19.2Z"/><path class="cls-1" d="M88.7,8.5h3.4V12h.1a7.69,7.69,0,0,1,7.2-4c5.8,0,7.6,3.3,7.6,8.1V30.6h-3.6v-15a4.12,4.12,0,0,0-4.5-4.4c-4.4,0-6.5,3-6.5,6.9V30.6H88.8V8.5Z"/><polygon class="cls-1" points="132.1 29 132.1 30.6 111.4 30.6 111.4 0 131.9 0 131.9 1.7 113.2 1.7 113.2 13.9 130.8 13.9 130.8 15.5 113.2 15.5 113.2 29 132.1 29"/><path class="cls-1" d="M134.7,23.3c.3,4.1,3.3,6.4,7.3,6.4,2.9,0,7-.9,7-4.7s-3.8-4.3-7.5-5-7.6-1.8-7.6-6.2,4.2-5.6,8-5.6c4.7,0,8.1,2,8.1,7h-1.6c0-4-2.8-5.6-6.5-5.6-3,0-6.3,1.1-6.3,4.2,0,3.5,3.8,4.1,7.3,4.8,4.4.8,7.8,1.8,7.8,6.5s-4.7,6.1-8.6,6.1c-5,0-8.8-2.7-8.9-7.8h1.5Z"/><path class="cls-1" d="M161.5,10h-4.8V25.4c0,3.5,1.7,3.9,4.7,3.8v1.4c-3.3.2-6.5-.3-6.4-5.2V10h-4.1V8.6H155V1.8h1.6V8.6h4.8V10Z"/><path class="cls-1" d="M179.7,26.5c0,1.3,0,2.7,1.5,2.7a5.74,5.74,0,0,0,1.2-.1v1.3a6.88,6.88,0,0,1-1.3.2c-2.6,0-3-1.4-3-3.2V26.2H178c-1,2.6-4,4.9-8.2,4.9s-7.4-1.6-7.4-6.2c0-5.1,4.4-6.2,8.1-6.5,7.3-.5,7.6-1,7.6-4.6,0-1-1.1-4.3-6.1-4.3-3.9,0-6.5,2.1-6.8,5.9h-1.6c.2-4.8,3.2-7.3,8.4-7.3,3.8,0,7.7,1.2,7.7,5.7V26.5ZM178,18.1c-1.3,1.5-4.8,1.3-8,1.7-3.8.4-6,1.8-6,5.1,0,2.7,1.9,4.8,5.8,4.8,7.4,0,8.2-6.3,8.2-7.5Z"/><path class="cls-1" d="M191.9,10h-4.8V25.4c0,3.5,1.7,3.9,4.7,3.8v1.4c-3.3.2-6.5-.3-6.4-5.2V10h-4.1V8.6h4.1V1.8H187V8.6h4.8V10Z"/><path class="cls-1" d="M194.4,19.8c-.1,5.2,2.7,9.9,8.1,9.9a7.7,7.7,0,0,0,7.9-6.5H212c-.9,5.1-4.3,8-9.5,8-6.4,0-9.8-5-9.7-11.1-.1-6,3.1-11.9,9.7-11.9,6.9,0,10,5.4,9.7,11.7H194.4Zm16.2-1.4c-.1-4.6-3-8.9-8-8.9s-7.7,4.5-8.1,8.9Z"/><path class="cls-1" d="M5,51.9H3.5L0,42H1.4l2.8,8.5h0L7,42H8.4Z"/><path class="cls-1" d="M9.8,42h1.3v9.9H9.8Z"/><path class="cls-1" d="M17.3,51.9H15.8L12.3,42h1.4l2.8,8.5h0L19.3,42h1.4Z"/><path class="cls-1" d="M23.1,39.4h1.5l-1.8,2h-.9Zm-1,2.6h1.3v9.9H22.1Z"/><path class="cls-1" d="M29.8,42h1.8l3.1,8.3L37.8,42h1.8v9.9H38.4V43.7h0l-3.1,8.2H34.2l-3.1-8.2h0v8.2H29.9V42Z"/><path class="cls-1" d="M41.9,42h6.8v1.1H43.2v3.1h5.1v1.1H43.2v3.4h5.5v1.1H41.9Z"/><path class="cls-1" d="M55.5,49.4a2.57,2.57,0,0,1-2.9,2.7,2.63,2.63,0,0,1-2.9-2.9v-.6H51V49c0,1.1.3,2,1.6,2s1.6-.7,1.6-1.8V42h1.3v7.4Z"/><path class="cls-1" d="M61.9,41.8c3.1,0,4.7,2.5,4.7,5.2s-1.6,5.2-4.7,5.2-4.7-2.5-4.7-5.2S58.8,41.8,61.9,41.8Zm0,9.2c2.4,0,3.4-2.1,3.4-4.1s-1-4.1-3.4-4.1-3.4,2.1-3.4,4.1S59.5,51,61.9,51Z"/><path class="cls-1" d="M68.4,42H73c1.8,0,3,1,3,2.6a2.31,2.31,0,0,1-1.7,2.5h0c1.1.2,1.4,1.1,1.5,2s0,2,.6,2.7H74.9c-.4-.4-.2-1.5-.4-2.4s-.4-1.8-1.6-1.8H69.7v4.2H68.4Zm4,4.6c1.2,0,2.3-.3,2.3-1.8,0-1-.5-1.7-1.8-1.7H69.6v3.4h2.8Z"/><path class="cls-1" d="M85.8,51.9H84.3L80.8,42h1.4L85,50.5h0L87.8,42h1.4Z"/><path class="cls-1" d="M90.6,42h1.3v9.9H90.6Z"/><path class="cls-1" d="M98.1,51.9H96.6L93.1,42h1.4l2.8,8.5h0l2.8-8.5h1.4Z"/><path class="cls-1" d="M103.9,39.4h1.5l-1.8,2h-.9Zm-1,2.6h1.3v9.9h-1.3Z"/><path class="cls-1" d="M117.5,45a2.63,2.63,0,0,0-2.8-2.1c-2.3,0-3.3,1.9-3.3,4s1,4.1,3.4,4.1a2.73,2.73,0,0,0,2.8-2.8h1.3a3.94,3.94,0,0,1-4.3,3.9c-3.1,0-4.6-2.3-4.6-5.1s1.6-5.2,4.7-5.2c2.1,0,3.8,1.1,4.1,3.2Z"/><path class="cls-1" d="M124.8,41.8c3.1,0,4.7,2.5,4.7,5.2s-1.6,5.2-4.7,5.2-4.7-2.5-4.7-5.2S121.7,41.8,124.8,41.8Zm0,9.2c2.4,0,3.4-2.1,3.4-4.1s-1-4.1-3.4-4.1-3.4,2.1-3.4,4.1S122.4,51,124.8,51Z"/><path class="cls-1" d="M131.3,42h1.8l3.1,8.3,3.1-8.3h1.8v9.9h-1.2V43.7h0l-3.1,8.2h-1.1l-3.1-8.2h0v8.2h-1.2V42Z"/><path class="cls-1" d="M147.6,41.8c3.1,0,4.7,2.5,4.7,5.2s-1.6,5.2-4.7,5.2-4.7-2.5-4.7-5.2S144.5,41.8,147.6,41.8Zm0,9.2c2.4,0,3.4-2.1,3.4-4.1s-1-4.1-3.4-4.1-3.4,2.1-3.4,4.1S145.2,51,147.6,51Z"/><path class="cls-1" d="M166.1,52.8l-1.5-1.2a4.27,4.27,0,0,1-2.4.6c-3.1,0-4.7-2.5-4.7-5.2s1.6-5.2,4.7-5.2,4.7,2.5,4.7,5.2a5.28,5.28,0,0,1-1.5,3.9l1.3,1Zm-2.9-3.7,1.3,1a4.47,4.47,0,0,0,1.1-3.2c0-2-1-4.1-3.4-4.1s-3.4,2.1-3.4,4.1,1,4.1,3.4,4.1a3.19,3.19,0,0,0,1.4-.3l-1.1-.9Z"/><path class="cls-1" d="M176.5,48.3c0,2.5-1.4,3.8-3.9,3.8s-4-1.2-4-3.8V42h1.3v6.3a2.47,2.47,0,0,0,2.7,2.7,2.4,2.4,0,0,0,2.6-2.7V42h1.3Z"/><path class="cls-1" d="M178.8,42h6.8v1.1h-5.5v3.1h5.1v1.1h-5.1v3.4h5.5v1.1h-6.8Z"/><path class="cls-1" d="M187.3,42h4.6c1.9,0,3,1,3,2.6a2.31,2.31,0,0,1-1.7,2.5h0c1.1.2,1.4,1.1,1.5,2s0,2,.6,2.7h-1.4c-.4-.4-.2-1.5-.4-2.4s-.4-1.8-1.6-1.8h-3.2v4.2h-1.3V42Zm4.1,4.6c1.2,0,2.3-.3,2.3-1.8,0-1-.5-1.7-1.8-1.7h-3.3v3.4h2.8Z"/><path class="cls-1" d="M196.9,42h6.8v1.1h-5.5v3.1h5.1v1.1h-5.1v3.4h5.5v1.1h-6.8Zm3.5-2.6h1.5l-1.8,2h-.9Z"/><path class="cls-1" d="M211.2,44.9a2.16,2.16,0,0,0-2.4-2c-1.1,0-2.2.4-2.2,1.7s1.6,1.4,3.2,1.8,3.1.9,3.1,2.8c0,2.1-2.1,2.9-3.9,2.9-2.2,0-4.1-1.1-4.1-3.5h1.2c0,1.7,1.4,2.4,2.9,2.4,1.2,0,2.5-.4,2.5-1.8s-1.6-1.6-3.1-1.9-3.2-.8-3.2-2.6c0-2,1.8-2.9,3.6-2.9,2,0,3.5,1,3.6,3.1Z"/></g></g></svg>