<svg xmlns="http://www.w3.org/2000/svg" viewBox="0 0 253.63 69.06"><defs><style>.cls-1,.cls-2{fill:#fff;}.cls-2{font-size:16.13px;font-family:HelveticaNeueLTStd-Roman, Helvetica Neue LT Std;letter-spacing:0.01em;}</style></defs><title>Asset 1</title><g id="Layer_2" data-name="Layer 2"><g id="Layer_1-2" data-name="Layer 1"><path class="cls-1" d="M29.33,23.3c0,9.2-5.26,14.05-14.36,14.05-9.4,0-15-4.34-15-14V0H4.85V23.3c0,6.44,3.68,10,10.12,10,6.13,0,9.51-3.53,9.51-10V0h4.85Z"/><path class="cls-1" d="M35,10.07h4.09v5.57h.1c2.1-4.25,5-6.34,9.71-6.19v4.6c-7,0-9.56,4-9.56,10.68V36.48H35Z"/><path class="cls-1" d="M51,0h4.34V13.64h.1c1.43-2.91,4.81-4.19,8.43-4.19,8.13,0,12.17,6.44,12.17,13.9S72.06,37.1,64,37.1c-2.71,0-6.59-1-8.54-4.14h-.1v3.52H51ZM63.27,13.28c-5.82,0-8.07,5-8.07,10,0,5.21,2.35,10,8.33,10s7.92-5,7.92-10.21c0-5-2.56-9.77-8.18-9.77"/><path class="cls-1" d="M103.29,36.38a5.87,5.87,0,0,1-3.12.72c-2.25,0-3.68-1.23-3.68-4.09a11.72,11.72,0,0,1-9.3,4.09c-4.8,0-8.73-2.15-8.73-7.41,0-6,4.44-7.26,8.94-8.13,4.8-.92,8.89-.61,8.89-3.88,0-3.78-3.12-4.39-5.88-4.39-3.68,0-6.39,1.12-6.59,5H79.48c.25-6.54,5.31-8.84,11.19-8.84,4.75,0,9.91,1.08,9.91,7.26V30.3c0,2,0,3,1.38,3a3.84,3.84,0,0,0,1.33-.26ZM96.24,22.84c-1.69,1.23-5,1.28-7.87,1.79s-5.32,1.53-5.32,4.75c0,2.86,2.46,3.89,5.11,3.89,5.73,0,8.08-3.58,8.08-6Z"/><path class="cls-1" d="M106.05,10.07h4.09v4.18h.1a9.2,9.2,0,0,1,8.59-4.8c7,0,9.09,4,9.09,9.66V36.48h-4.34V18.6a5,5,0,0,0-5.37-5.32c-5.26,0-7.81,3.53-7.81,8.28V36.48h-4.35Z"/><polygon class="cls-1" points="157.93 34.54 157.93 36.48 133.14 36.48 133.14 0 157.67 0 157.67 1.94 135.39 1.94 135.39 16.55 156.34 16.55 156.34 18.5 135.39 18.5 135.39 34.54 157.93 34.54"/><path class="cls-1" d="M161.05,27.74c.31,4.86,3.94,7.67,8.69,7.67,3.42,0,8.33-1,8.33-5.57s-4.5-5.11-9-6-9-2.09-9-7.46c0-5.21,5.06-6.74,9.5-6.74,5.57,0,9.71,2.4,9.71,8.38H177.3c-.05-4.76-3.37-6.7-7.77-6.7-3.57,0-7.56,1.33-7.56,5.06,0,4.19,4.5,4.85,8.74,5.77,5.21,1,9.3,2.2,9.3,7.72s-5.67,7.26-10.27,7.26c-6,0-10.48-3.22-10.63-9.36Z"/><path class="cls-1" d="M193.09,11.91h-5.72V30.25c0,4.24,2,4.65,5.67,4.55v1.68c-4,.26-7.82-.3-7.61-6.23V11.91h-4.86V10.22h4.86V2h1.94v8.18h5.72Z"/><path class="cls-1" d="M214.76,31.63c0,1.53,0,3.17,1.74,3.17a8.33,8.33,0,0,0,1.43-.16v1.64a9.11,9.11,0,0,1-1.58.2c-3.07,0-3.53-1.68-3.53-3.83V31.27h-.1C211.49,34.39,208,37.1,203,37.1s-8.79-1.89-8.79-7.41c0-6.13,5.31-7.41,9.66-7.77,8.68-.61,9-1.17,9-5.47,0-1.17-1.33-5.16-7.31-5.16-4.7,0-7.82,2.46-8.07,7h-1.94c.25-5.77,3.83-8.68,10-8.68,4.6,0,9.2,1.43,9.2,6.84Zm-1.94-10.07c-1.53,1.74-5.72,1.54-9.51,2.05-4.59.51-7.2,2.14-7.2,6.08,0,3.17,2.3,5.72,6.9,5.72,8.84,0,9.81-7.56,9.81-8.94Z"/><path class="cls-1" d="M229.33,11.91h-5.72V30.25c0,4.24,2,4.65,5.67,4.55v1.68c-4,.26-7.82-.3-7.61-6.23V11.91h-4.86V10.22h4.86V2h1.94v8.18h5.72Z"/><path class="cls-1" d="M232.4,23.61c-.1,6.18,3.17,11.8,9.66,11.8a9.08,9.08,0,0,0,9.4-7.82h1.94c-1,6.13-5.11,9.51-11.34,9.51-7.67,0-11.71-6-11.6-13.29-.11-7.2,3.67-14.2,11.6-14.2,8.22,0,11.9,6.48,11.54,14Zm19.26-1.69c-.1-5.52-3.57-10.63-9.6-10.63-5.83,0-9.25,5.42-9.66,10.63Z"/><text class="cls-2" transform="translate(0.96 65.61)">VIVÍ MEJOR, VIVÍ COMO QUERÉS</text></g></g></svg>